<svg xmlns="http://www.w3.org/2000/svg" style="isolation:isolate" viewBox="0 0 303.324 303.324" width="303.324pt" height="303.324pt"><defs><clipPath id="a"><path d="M0 0h303.324v303.324h-303.324z"/></clipPath></defs><path d="M27.232 215.067c-21.559 0-21.559 13.049-21.559 19.823 0 45.729 47.753 49.927 106.66 49.927h78.656c58.907 0 106.66-7.98 106.66-49.927 0-6.774-2.065-19.823-21.355-19.823h-249.062zm276.092-35.039c0 7.489-6.127 13.616-13.616 13.616h-276.092c-7.489 0-13.616-6.127-13.616-13.616v-10.21c0-7.489 6.127-13.616 13.616-13.616h276.092c7.489 0 13.616 6.127 13.616 13.616v10.21zm-146.374-161.521h-10.576c-58.906 0-140.7 36.407-140.7 95.314 0 6.774 2.065 19.822 21.354 19.822h249.064c21.559 0 21.559-13.048 21.559-19.822-.001-58.907-81.795-95.314-140.701-95.314zm-69.197 75.573c-5.629 9.388-15.324 13.92-21.655 10.124-6.331-3.797-6.9-14.483-1.271-23.871 5.629-9.387 15.324-13.92 21.655-10.123 6.33 3.796 6.9 14.483 1.271 23.87zm63.909 13.823c-7.05 0-12.766-9.266-12.766-20.696 0-11.43 5.716-20.696 12.766-20.696s12.766 9.266 12.766 20.696c0 11.43-5.716 20.696-12.766 20.696zm85.564-3.699c-6.331 3.796-16.026-.736-21.655-10.124-5.629-9.387-5.06-20.074 1.271-23.87 6.331-3.797 16.026.736 21.655 10.123 5.63 9.388 5.061 20.074-1.271 23.871z" clip-path="url(#a)"/></svg>