<svg xmlns="http://www.w3.org/2000/svg" style="isolation:isolate" viewBox="0 0 512 512" width="512pt" height="512pt"><defs><clipPath id="a"><path d="M0 0h512v512h-512z"/></clipPath></defs><g clip-path="url(#a)"><path d="M195 316h122c6.461 0 12.188-4.133 14.223-10.254l11.031-33.074c13.109-39.305 19.746-80.231 19.746-121.672 0-41.352-33.648-75-75-75h-62c-41.352 0-75 33.648-75 75 0 81.48 25.109 133.887 30.777 154.746 2.036 6.121 7.762 10.254 14.223 10.254zM448.793 347.715c-5.18 12.914-15.723 22.375-28.484 26.293 5.332 9.93 9.597 20.449 12.355 31.48 4.481 17.973 20.551 30.512 39.066 30.512 22.208 0 40.27-18.062 40.27-40.27v-20.566c0-39.531-10.289-78.172-29.234-112.394l-33.973 84.945zM40.27 436c18.515 0 34.585-12.539 39.066-30.512 2.758-11.023 7.019-21.531 12.363-31.48-12.758-3.914-23.304-13.375-28.476-26.278l-33.993-84.957c-18.941 34.219-29.23 72.86-29.23 112.391v20.566c0 22.208 18.063 40.27 40.27 40.27zM458.648 242.273c15.356-38.394-3.382-82.117-41.789-97.484l-26.562-10.625c.898 5.516 1.703 11.07 1.703 16.836 0 44.691-7.164 88.813-21.285 131.16l-11.027 33.078c-1.657 4.969-4.235 9.387-7.329 13.356l49.895 16.629c7.43 2.5 15.684-1.2 18.676-8.657l37.718-94.293zM152.313 315.211c-5.434-20.102-32.313-77.098-32.313-164.211 0-5.766.805-11.32 1.703-16.836l-26.562 10.625c-38.407 15.367-57.145 59.094-41.789 97.484l37.718 94.293c2.989 7.454 11.239 11.157 18.676 8.657l49.906-16.633c-3.101-3.977-5.679-8.399-7.339-13.379z"/></g></svg>