<svg xmlns="http://www.w3.org/2000/svg" style="isolation:isolate" viewBox="0 0 512 512" width="512pt" height="512pt"><defs><clipPath id="a"><path d="M0 0h512v512h-512z"/></clipPath></defs><g clip-path="url(#a)"><path d="M421.062 15c0-8.289-6.707-15-15-15h-30c-24.617 0-46.316 12.086-59.999 30.465-13.68-18.379-35.379-30.465-60-30.465h-30c-8.289 0-15 6.711-15 15 0 41.129 33.3 74.57 74.343 74.933-1.429 1.926-2.734 3.633-4.265 5.735 20.554 9.531 34.922 30.222 34.922 54.332v80.082l89.691-40.899c-16.067-38.238-41.457-75.687-58.961-99.257 41.012-.403 74.269-33.821 74.269-74.926zM447.465 215.398c-4.2-5.098-11.403-6.898-17.704-4.199l-292.198 132.902 105.902 161.296c2.996 4.204 7.801 6.602 12.598 6.602 4.847 0 10.046-2.77 12.597-6.602l180-271.999c3.601-5.699 3.305-12.898-1.195-18zM256.063 120c-8.282 0-15 6.715-15 15v115.589l15.015 6.844 29.985-13.672v-93.761c0-16.571-13.43-30-30-30zM64.665 215.398c-4.5 5.102-4.801 12.301-1.2 18l57.176 85.418 99.203-44.93-137.48-62.687c-6.301-2.699-13.5-.899-17.699 4.199zM166.063 216.394l45 20.516v-11.91c0-24.852-20.145-45-45-45v36.394zM91.063 182.644c1.031.356 2.098.543 3.105.973l41.895 19.101v-97.718c0-8.285-6.715-15-15-15-16.566 0-30 13.429-30 30v62.644z"/></g></svg>