<svg height="512" viewBox="0 0 512 512" width="512" xmlns="http://www.w3.org/2000/svg"><path d="M300.76 273.69c-.648 14.691-6.442 27.995-15.848 38.117 9.754 8.26 16.088 20.438 16.088 34.193 0 4.541-.674 8.936-1.934 13.066 18.457-5.61 31.934-22.793 31.934-43.066 0-19.618-12.695-36.165-30.24-42.31zm-52.566 26.067c13.089-3.314 22.806-15.037 22.806-28.757h-57.437c5.334 15.029 18.615 25.876 34.631 28.757zm-22.194-148.757c-19.556 0-36.24 12.539-42.437 30h84.873c-6.196-17.461-22.88-30-42.436-30zm30-60c-90.981 0-165 74.019-165 165s74.019 165 165 165 165-74.019 165-165-74.019-165-165-165zm-105 105c0-41.353 33.647-75 75-75s75 33.647 75 75v15h-150zm-30 75v-30h30v30zm60 90h-30v-30h30zm105 30h-75v-30h45c8.276 0 15-6.724 15-15s-6.724-15-15-15c-41.353 0-75-33.647-75-75v-15h105c41.353 0 75 33.647 75 75s-33.647 75-75 75zm105-150h-30v-30h30zm-135-241c-54.082 0-104.191 18.042-145.497 46.87l-43.292-43.292-63.633 63.633 43.292 43.292c-28.828 41.306-46.87 91.415-46.87 145.497 0 140.61 115.39 256 256 256 54.082 0 104.191-18.042 145.497-46.87l43.292 43.292 63.633-63.633-43.292-43.292c28.828-41.306 46.87-91.415 46.87-145.497 0-140.61-115.39-256-256-256zm-210 67.211l21.211-21.211 19.671 19.671c-7.482 6.654-14.557 13.729-21.211 21.211zm420 377.578l-21.211 21.211-19.671-19.671c7.482-6.654 14.557-13.729 21.211-21.211zm-210 6.211c-107.52 0-195-87.48-195-195s87.48-195 195-195 195 87.48 195 195-87.48 195-195 195z"/></svg>