<svg xmlns="http://www.w3.org/2000/svg" style="isolation:isolate" viewBox="0 0 1024 1024" width="1024pt" height="1024pt"><defs><clipPath id="a"><path d="M0 0h1024v1024h-1024z"/></clipPath></defs><g clip-path="url(#a)"><path fill="#ffe55f" d="M0 0h1024v1024h-1024z"/><path d="M487.25 618.586l.005-.002c-1.522-1.299-2.715-2.789-3.549-4.483-13.027-26.45 53.041-87.051 162.441-140.937 24.559-12.096 48.6-27.112 71.275-35.826-34.946-85.875-127.006-147.338-223.416-147.338-122.606 0-356.494 99.393-356.494 222 0 191.211 233.888 222 356.495 222 32.453 0 64.415-6.968 93.872-19.482-45.547-19.633-73.813-53.115-100.629-95.932z" fill="#b78855"/><path d="M165.821 512c0-89.471 116.629-167.361 232.272-207.721-120.246 31.708-260.581 112.749-260.581 207.721 0 115.86 85.875 172.818 180.829 199.719-84.04-32.852-152.52-92.801-152.52-199.719z" fill="#a3764a"/><path d="M869.309 418.167l-394.114 200.42c60.565 96.71 190.035 145.855 292.995 95.142 104.663-51.553 144.217-187.722 101.119-295.562z" fill="#b78855"/><path d="M798.478 693.653c-101.7 50.092-229.257 2.749-290.733-91.619l-32.552 16.553c60.565 96.71 190.036 145.855 292.995 95.142 13.125-6.464 25.224-14.261 36.267-23.164-1.97 1.056-3.958 2.093-5.977 3.088z" fill="#a3764a"/><path d="M471.677 614.078c-13.023-26.429 65.16-91.621 174.483-145.49 109.323-53.87 208.652-76.147 221.675-49.718 13.023 26.429-65.16 91.621-174.483 145.49-109.323 53.87-208.652 76.147-221.675 49.718z" fill="#e0b377"/><path d="M500.931 614.102c-13.028-26.45 65.098-91.573 174.498-145.458 68.521-33.751 133.058-55.085 174.923-59.819-35.531-6.179-116.608 16.674-204.203 59.819-109.401 53.885-187.527 119.01-174.499 145.458 4.869 9.883 21.778 12.965 46.754 10.141-8.845-1.539-14.877-4.87-17.473-10.141zm-160.994-106.7c-6.242 0-11.303-5.06-11.303-11.303v-11.248c0-6.243 5.06-11.303 11.303-11.303 6.242 0 11.304 5.06 11.304 11.303v11.248c0 6.243-5.06 11.303-11.304 11.303zm112.825 0c-6.242 0-11.303-5.06-11.303-11.303v-11.248c0-6.243 5.06-11.303 11.303-11.303 6.242 0 11.304 5.06 11.304 11.303v11.248c0 6.243-5.062 11.303-11.304 11.303zm52.721-109.309c-6.242 0-11.303-5.06-11.303-11.304v-11.248c0-6.243 5.06-11.303 11.303-11.303 6.242 0 11.303 5.06 11.303 11.303v11.248c0 6.244-5.061 11.304-11.303 11.304zm-267.825 109.309c-6.242 0-11.303-5.06-11.303-11.303v-11.248c0-6.243 5.06-11.303 11.303-11.303 6.242 0 11.303 5.06 11.303 11.303v11.248c0 6.243-5.061 11.303-11.303 11.303zm49.558 123.368c-6.242 0-11.303-5.06-11.303-11.304v-11.247c0-6.244 5.06-11.304 11.303-11.304 6.244 0 11.304 5.06 11.304 11.304v11.247c0 6.244-5.062 11.304-11.304 11.304zm105.444 0c-6.242 0-11.304-5.06-11.304-11.304v-11.247c0-6.244 5.06-11.304 11.304-11.304 6.242 0 11.303 5.06 11.303 11.304v11.247c0 6.244-5.061 11.304-11.303 11.304zm0-232.677c-6.242 0-11.304-5.06-11.304-11.304v-11.248c0-6.243 5.06-11.303 11.304-11.303 6.242 0 11.303 5.06 11.303 11.303v11.248c0 6.244-5.061 11.304-11.303 11.304z" fill="#cc9a5e"/><path d="M746.838 645.997l10.772-4.692c5.727-2.491 12.385.127 14.877 5.849 2.493 5.724-.125 12.383-5.848 14.877l-10.772 4.691c-13.878 6.046-22.553-14.833-9.029-20.725zm-110.133 14.607c-2.474-5.731.166-12.382 5.896-14.858l10.324-4.455c5.734-2.474 12.384.168 14.858 5.896 2.473 5.732-.167 12.383-5.897 14.858l-10.323 4.456c-5.736 2.475-12.385-.168-14.858-5.897z" fill="#e0b377"/></g></svg>