<svg xmlns="http://www.w3.org/2000/svg" viewBox="0 0 50.803 50.803" enable-background="new 0 0 50.803 50.803"><path d="M50.392 1.001c-.446-.326-1.072-.228-1.397.219l-9.374 12.86c-.365-.316-.859-.472-1.341-.398-.011-.319-.115-.63-.308-.898l-.085-.085 3.97-11.299c.183-.521-.091-1.092-.612-1.274-.521-.187-1.092.091-1.275.612l-3.9 11.101c-.062-.166-.141-.326-.256-.467-.458-.561-1.289-.765-1.943-.487-.071-.24-.196-.461-.371-.65-.517-.558-1.421-.689-2.065-.312-.26-.587-.848-.992-1.529-.992-.371 0-.721.123-1.005.342-.294-.488-.829-.806-1.43-.806-.45 0-.862.174-1.166.477-.309-.393-.784-.633-1.308-.633s-.999.24-1.307.633c-.304-.303-.716-.477-1.166-.477-.601 0-1.136.317-1.43.806-.284-.219-.634-.342-1.005-.342-.681 0-1.269.405-1.529.992-.626-.367-1.487-.245-2.011.271-1.207-1.33-2.816-2.737-4.501-3.287l-.875-.287-.357.849c-.079.188-1.436 3.511-.581 6.761-.076.084-.149.171-.207.271-.174.298-.248.638-.218.973-.626-.024-1.205.322-1.506.879-.195.357-.249.757-.165 1.137-.576.059-1.091.423-1.34.962-.187.403-.203.848-.061 1.247-.529.12-.97.495-1.175 1.022-.175.449-.146.935.062 1.346-.26.096-.494.255-.677.469l-.138.201h-2.436c-.652 0-1.282.274-1.729.752-.451.482-.684 1.137-.64 1.797.592 8.747 6.156 13.139 14.329 17.041.912.436 1.666 1.161 2.122 2.042.446.862.375 1.974-.194 2.92-.429.712-.441 1.568-.032 2.292.409.725 1.149 1.156 1.98 1.156h13.488c.831 0 1.572-.432 1.98-1.156.409-.724.397-1.58-.042-2.31-.559-.929-.629-2.04-.184-2.901.456-.882 1.209-1.607 2.122-2.043 8.172-3.902 13.736-8.294 14.328-17.041.044-.66-.188-1.314-.64-1.797-.446-.478-1.077-.752-1.729-.752h-2.35l-.138-.201c-.183-.213-.415-.372-.678-.468.208-.411.237-.896.063-1.347-.205-.527-.646-.902-1.175-1.022.143-.399.126-.844-.061-1.247-.25-.539-.765-.903-1.341-.962.084-.38.031-.779-.164-1.138-.172-.318-.438-.544-.748-.692l9.667-13.262c.329-.446.23-1.071-.216-1.397zm-40.769 31.551c-.181.139-.395.206-.607.206-.301 0-.598-.135-.795-.393-.726-.949-1.327-1.971-1.789-3.036-.219-.507.014-1.096.521-1.315.506-.22 1.095.014 1.315.521.396.917.915 1.797 1.542 2.616.336.438.252 1.066-.187 1.401zm12.426 7.581c-.153.396-.532.64-.933.64-.12 0-.242-.021-.36-.067-4.102-1.582-7.202-3.315-9.755-5.454-.423-.354-.479-.985-.125-1.409.355-.423.985-.479 1.409-.124 2.38 1.993 5.3 3.621 9.191 5.122.515.198.772.777.573 1.292zm17.649-22.556c-.064.363-.007.743.174 1.079.256.472.715.787 1.231.859-.12.384-.096.804.082 1.188.209.453.608.782 1.074.91-.159.347-.193.743-.089 1.123h-34.345c.104-.38.07-.774-.088-1.122.468-.124.86-.45 1.073-.911.178-.384.202-.805.082-1.188.517-.072.976-.388 1.231-.859.182-.336.239-.716.174-1.079.504-.006.985-.25 1.295-.65.172.213.359.416.557.609l.001.001.011.012.066.062.046.044c.758.709 1.68 1.083 2.665 1.083l.051-.004c1.443-.02 2.837-.855 3.563-2.148v-.001l.028-.059c.074-.136.143-.274.199-.415l.007-.021c.124-.314.206-.635.242-.96l.015-.339.007-.161c-.016-.667-.214-1.335-.592-1.958l-.008-.013c-.095-.155-.224-.351-.381-.576l-.038-.057c.221.107.466.165.719.165.658 0 1.229-.379 1.501-.935.275.195.606.304.957.304.579 0 1.096-.295 1.396-.752.649.599 1.821.521 2.393-.151.572.676 1.744.75 2.393.151.3.457.818.752 1.396.752.351 0 .682-.108.957-.304.271.556.843.935 1.501.935.274 0 .539-.067.775-.193.073.217.192.417.352.591.455.49 1.205.661 1.816.43.053.259.167.503.339.713.185.226.434.39.704.494l-1.765 5.024c-.183.521.091 1.092.612 1.274.11.039.222.057.332.057.413 0 .799-.257.943-.669l1.546-4.401c.333.242.744.366 1.158.319-.006.117.016.232.035.347l-2.707 3.713c-.325.446-.227 1.071.219 1.396.178.13.384.192.588.192.309 0 .613-.143.809-.411l2.56-3.512.138.022zm-15.037-1.133l1-1c.391-.391.391-1.023 0-1.414s-1.023-.391-1.414 0l-1 1c-.391.391-.391 1.023 0 1.414.195.195.451.293.707.293s.512-.098.707-.293zm-4 .586c-.391-.391-1.023-.391-1.414 0s-.391 1.023 0 1.414l1 1c.195.195.451.293.707.293s.512-.098.707-.293c.391-.391.391-1.023 0-1.414l-1-1zm4.586 2l-1 1c-.391.391-.391 1.023 0 1.414.195.195.451.293.707.293s.512-.098.707-.293l1-1c.391-.391.391-1.023 0-1.414s-1.023-.391-1.414 0zm4.707-1.293c.256 0 .512-.098.707-.293.391-.391.391-1.023 0-1.414l-1-1c-.391-.391-1.023-.391-1.414 0s-.391 1.023 0 1.414l1 1c.195.195.451.293.707.293zm.293 1.293l-1 1c-.391.391-.391 1.023 0 1.414.195.195.451.293.707.293s.512-.098.707-.293l1-1c.391-.391.391-1.023 0-1.414-.39-.391-1.023-.391-1.414 0zm-18 0l-1 1c-.391.391-.391 1.023 0 1.414.195.195.451.293.707.293s.512-.098.707-.293l1-1c.391-.391.391-1.023 0-1.414s-1.023-.391-1.414 0zm5.707.707h-1c-.552 0-1 .447-1 1s.448 1 1 1h1c.552 0 1-.447 1-1s-.448-1-1-1z"/></svg>