<svg xmlns="http://www.w3.org/2000/svg" viewBox="0 0 36.771 36.771" enable-background="new 0 0 36.771 36.771"><path d="M19.647 10.884v-3.159h-.011c-.019-.344-.117-.678-.287-1-.185-.351-.452-.686-.798-1-1.633-1.484-4.924-2.5-8.727-2.5s-7.094 1.016-8.727 2.5c-.346.314-.612.649-.798 1-.17.322-.27.656-.287 1h-.012v12.875c-.001 3.161 4.397 5.725 9.823 5.725 2.398 0 4.594-.502 6.299-1.334v-10.041l.012-1h.196c.057-.158.126-.313.208-.467.24-.454.58-.882 1.009-1.273.556-.506 1.277-.946 2.1-1.326zm-9.825-.436c-5.135 0-7.825-1.941-7.825-2.612l.027-.112c.087-.255.447-.622 1.082-1 .6-.357 1.445-.72 2.522-1 1.14-.296 2.538-.5 4.195-.5s3.056.204 4.195.5c1.077.28 1.922.643 2.522 1 .634.377.995.745 1.082 1l.025.112c0 .671-2.69 2.612-7.825 2.612zm26.938 4.501c-.018-.344-.118-.678-.288-1-.185-.351-.452-.686-.798-1-1.633-1.484-4.924-2.5-8.727-2.5-1.957 0-3.771.272-5.3.735-.348.105-.684.219-1 .344-.356.141-.688.294-1 .457-.556.291-1.042.613-1.428.964-.346.314-.612.649-.798 1-.17.322-.27.656-.288 1h-.012v12.873c0 3.162 4.399 5.725 9.826 5.725 5.426 0 9.824-2.562 9.824-5.725v-12.873h-.011zm-9.812 2.724c-2.238 0-4.012-.369-5.3-.84-.374-.137-.708-.282-1-.43-.42-.213-.752-.429-1-.632-.347-.284-.525-.538-.525-.71l.025-.112c.054-.16.23-.367.5-.59.16-.133.347-.27.582-.41l.418-.225c.291-.147.628-.29 1-.426.339-.124.699-.243 1.104-.349 1.14-.296 2.537-.5 4.195-.5 1.656 0 3.055.204 4.194.5 1.077.28 1.922.643 2.522 1 .635.378.994.745 1.082 1l.024.112c.003.671-2.687 2.612-7.821 2.612zm1.42-3.724c-.488-.087-.984-.141-1.42-.141-.385 0-.818.047-1.248.116-.25-.073-.555-.116-.886-.116-.848 0-1.534.28-1.534.626 0 .109.074.21.194.3-.069.07-.126.141-.151.215l-.043.112c0 .692 2.194 1.253 3.668 1.253.362 0 .77-.035 1.176-.096.227.057.5.096.81.096.735 0 1.333-.19 1.333-.425 0-.085-.098-.16-.232-.226.348-.179.582-.382.582-.602l-.043-.112c-.154-.439-1.14-.809-2.206-1zm-14.92-6.225c-.083-.24-.41-.46-.876-.642.098-.107.164-.225.178-.358l.016-.053c0-.437-.522-.792-1.167-.792-.614 0-1.104.325-1.15.734-.217-.019-.428-.031-.626-.031-.436 0-.934.054-1.421.141l-.514.106-.31-.106c-.138-.03-.283-.053-.438-.053s-.3.023-.438.053c-.496.108-.854.385-.854.718 0 .1.037.194.095.282.062.093.151.174.262.245.255.629 2.24 1.122 3.618 1.122l.131-.006c.269.368.928.63 1.703.63 1.013 0 1.834-.445 1.834-.995 0-.181-.096-.348-.252-.495.148-.123.252-.252.252-.388l-.043-.112z" fill="#030104"/></svg>