<svg xmlns="http://www.w3.org/2000/svg" width="526.403" height="526.404" viewBox="0 0 526.403 526.404"><path d="M358.486 171.895c4.266 6.005 8.367 14.544 8.97 25.704 8.014 2.553 17.528 7.325 27.474 16.026 6.358 5.565 9.811 12.575 11.197 20.062 2.151-.268 4.342-.421 6.531-.421 15.615 0 28.486 7.822 35.305 21.458 9.085 18.169 3.309 35.822-6.799 49.83 7.172 5.289 13.913 12.652 18.953 22.73 16.792 33.594 12.699 42.076-15.74 70.514l-.889.891c9.39 11.656 24.986 12.363 48.022 12.363 4.562 0 16.094-1.262 24.882-12.908 8.721-11.562 16.198-35.535 2.323-84.094-16.734-58.627-80.697-120.554-160.229-142.155zm84.514 163.882c-10.423-20.847-29.777-23.705-35.027-24.098-.812-.058-1.311-.067-1.367-.067 0 0 .421-.286 1.014-.708 5.613-3.978 34.214-25.693 23.246-47.631-4.083-8.175-10.93-10.881-18.197-10.881-12.307 0-25.79 7.717-29.357 9.907-.583.354-.966.602-.966.602s.229-.468.584-1.262c2.257-5.068 9.906-24.432-.584-33.622-13.865-12.135-25.694-14.085-31.853-14.085l-.354.009c-2.658.039-4.198.421-4.198.421.459-1.377.718-2.658 1.043-3.968 8.232-33.258-25.771-44.562-37.438-44.562-4.887 0-11.733.985-18.169 2.161-7.439 1.358-14.315 2.955-17.012 3.605-.765.182-1.214.297-1.214.297l-.02-.641c-.076-1.827-.564-7.631-3.061-14.889-.975-2.84-2.285-5.881-3.997-9.017-6.349-11.657-18.379-24.27-41.453-30.046-5.393-1.348-10.633-1.951-15.692-1.951-40.469 0-69.232 38.346-69.232 38.346-14-8.396-26.058-11.628-36.328-11.628-34.234 0-48.597 35.898-48.597 35.898-4.408-1.1-8.224-1.607-11.503-1.607-32.809 0-12.756 50.136-12.756 50.136-56.639 22.654-18.092 55.883-12.737 60.187 27.798-52.68 78.345-99.04 170.184-101.592 1.062-.029 2.859-.201 4.733-.383 2.907-.268 5.958-.535 7.669-.535 107.319 0 176.839 110.8 210.317 181.688 1.071 2.275 2.113 4.514 3.117 6.703 1.349 2.945 3.376 5.986 5.661 9.018l7.02 1.654 4.389 1.031c1.616-1.615 3.117-3.117 4.523-4.531 19.671-19.824 18.934-21.315 7.612-43.959zm-43.146 51.006c-1.282-2.074-2.486-4.17-3.452-6.283-.728-1.596-1.502-3.24-2.276-4.895-31.202-66.604-96.112-172.317-193.765-172.317-1.31 0-3.663.239-5.891.449-2.362.22-4.628.431-5.977.469-79.809 2.218-125.326 41.444-151.241 87.381-1.625 2.889-3.165 5.805-4.647 8.731-1.482 2.936-2.878 5.89-4.208 8.854-15.92 35.382-21.868 72.39-23.981 98.228h412.526c-2.754-2.688-5.479-5.633-8.128-8.684-3.328-3.804-6.407-7.793-8.96-11.933zm-199.493-105.695c0-10.05 8.147-18.197 18.197-18.197s18.197 8.147 18.197 18.197-8.147 18.198-18.197 18.198-18.197-8.148-18.197-18.198zm60.636 73.011c-.038 3.375-1.033 6.512-2.678 9.207-3.194 5.24-8.912 8.779-15.5 8.779-9.524 0-17.26-7.344-18.044-16.668-.048-.516-.153-1.004-.153-1.529 0-2.85.708-5.508 1.875-7.908 1.664-3.424 4.351-6.207 7.679-8.023 2.582-1.406 5.499-2.275 8.635-2.275 6.187 0 11.638 3.098 14.927 7.822 2.056 2.945 3.27 6.512 3.27 10.375l-.011.22zm18.217-30.543c-10.051 0-18.198-8.148-18.198-18.197 0-10.051 8.147-18.198 18.198-18.198 10.05 0 18.197 8.147 18.197 18.198 0 10.049-8.147 18.197-18.197 18.197z"/></svg>